<svg xmlns="http://www.w3.org/2000/svg" xmlns:xlink="http://www.w3.org/1999/xlink" version="1.1" id="id_svgCanvas" x="0px" y="0px" width="32px" height="32px" viewBox="0 0 32 32" style="enable-background:new 0 0 32 32;" xml:space="preserve" preserveAspectRatio="none">
<path d="M26.85,9.07c-0.3-0.3-0.58-0.53-0.85-0.69V5c0,0,0-2-2-2H8c0,0-2,0-2,2v22c0,0,0,2,2,2h16c0,0,2,0,2-2V14.16l1.56-1.55  C27.61,12.55,28.95,11.17,26.85,9.07z M25,27c0,0.81-0.55,0.99-1,1H8c-0.81,0-0.99-0.55-1-1V5c0-0.81,0.55-0.99,1-1h16  c0.81,0,0.99,0.55,1,1v2.94c-1.03-0.21-1.65,0.39-1.69,0.43L21.9,9.78l-7.78,7.78L12,23.92l6.36-2.12L25,15.16V27z M14.83,18.27  l2.83,2.83l-4.25,1.41L14.83,18.27z M18.36,20.39l-2.82-2.83l7.07-7.069l2.83,2.83L18.36,20.39z M26.85,11.9l-0.71,0.71l-2.83-2.83  l0.71-0.71c0,0,0.711-0.7,2.12,0.71C27.56,11.2,26.85,11.9,26.85,11.9z"></path>
</svg>